<?xml version="1.0" encoding="UTF-8"?>
<!--Generator: Apple Native CoreSVG 326-->
<!DOCTYPE svg
PUBLIC "-//W3C//DTD SVG 1.1//EN"
       "http://www.w3.org/Graphics/SVG/1.1/DTD/svg11.dtd">
<svg version="1.1" xmlns="http://www.w3.org/2000/svg" xmlns:xlink="http://www.w3.org/1999/xlink" viewBox="0 0 162.812 162.938">
 <g>
  <rect height="162.938" opacity="0" width="162.812" x="0" y="0"/>
  <path d="M11.6875 81.4375C11.6875 73.75 12.9375 66.3125 15.25 59.5L4.4375 55C1.625 63.3125 0 72.1875 0 81.4375C0 90.625 1.625 99.5625 4.5 107.875L15.25 103.375C13 96.5625 11.6875 89.125 11.6875 81.4375ZM50.0625 19L45.625 8.5C29.5 16.4375 16.3125 29.625 8.375 45.75L19 50.25C25.6875 36.75 36.625 25.8125 50.0625 19ZM81.3125 11.6875C89 11.6875 96.4375 12.9375 103.375 15.25L107.75 4.5625C99.4375 1.625 90.5625 0 81.3125 0C72.125 0 63.125 1.625 54.8125 4.5625L59.3125 15.25C66.25 12.875 73.625 11.6875 81.3125 11.6875ZM143.75 50.1875L154.375 45.75C146.375 29.5625 133.125 16.375 117 8.375L112.562 19C126.062 25.75 137 36.625 143.75 50.1875ZM151.125 81.4375C151.125 89.125 149.875 96.5625 147.625 103.438L158.25 107.938C161.188 99.625 162.812 90.625 162.812 81.4375C162.812 72.1875 161.188 63.25 158.25 54.9375L147.625 59.4375C149.938 66.3125 151.125 73.75 151.125 81.4375ZM112.562 143.812L117 154.438C133.188 146.438 146.438 133.25 154.312 117.125L143.812 112.688C137.062 126.188 126.125 137.125 112.562 143.812ZM81.375 151.188C73.625 151.188 66.25 149.938 59.3125 147.562L54.875 158.312C63.1875 161.188 72.1875 162.812 81.375 162.812C90.625 162.812 99.5 161.25 107.812 158.375L103.312 147.688C96.375 149.938 89.0625 151.188 81.375 151.188ZM19.0625 112.688L8.375 117.125C16.375 133.25 29.5625 146.438 45.6875 154.375L50.0625 143.75C36.625 137.062 25.6875 126.125 19.0625 112.688Z" fill="black" fill-opacity="0.85"/>
  <path d="M79.75 98C83.25 98 85.3125 95.8125 85.3125 93.0625C85.3125 92.5625 85.3125 92.0625 85.3125 91.625C85.3125 86.9375 87.875 84.0625 93.6875 80.1875C101.688 74.875 106.688 70.125 106.688 61C106.688 48.4375 95.4375 41.25 82.0625 41.25C68.5625 41.25 59.75 48 57.8125 55.6875C57.4375 56.875 57.25 58.0625 57.25 59.375C57.25 62.5625 59.625 64.25 62 64.25C64.4375 64.25 66 63.0625 67.1875 61.25L68.3125 59.5625C70.5 54.375 75.3125 50.6875 81.625 50.6875C89.625 50.6875 94.6875 55.125 94.6875 61.5625C94.6875 67.0625 91.5 69.9375 84.1875 75C78.1875 79.25 74.25 83.4375 74.25 91C74.25 91.5 74.25 92.0625 74.25 92.5625C74.25 96.125 76.25 98 79.75 98ZM79.625 121.438C83.875 121.438 87.5625 118 87.5625 113.75C87.5625 109.438 83.9375 106.062 79.625 106.062C75.25 106.062 71.6875 109.5 71.6875 113.75C71.6875 117.938 75.3125 121.438 79.625 121.438Z" fill="black" fill-opacity="0.85"/>
 </g>
</svg>
